<svg xmlns="http://www.w3.org/2000/svg" viewBox="0 0 128 128" role="img" aria-label="Emberlist">
  <defs>
    <radialGradient id="glow" cx="50%" cy="69%" r="48%">
      <stop offset="0" stop-color="#fff0c2"/>
      <stop offset="0.42" stop-color="#ff8b1f"/>
      <stop offset="1" stop-color="#e84909"/>
    </radialGradient>
    <linearGradient id="flame" x1="37" x2="82" y1="105" y2="14" gradientUnits="userSpaceOnUse">
      <stop offset="0" stop-color="#d64000"/>
      <stop offset="0.45" stop-color="#ff7917"/>
      <stop offset="1" stop-color="#ff4f06"/>
    </linearGradient>
    <linearGradient id="log" x1="24" x2="105" y1="104" y2="109" gradientUnits="userSpaceOnUse">
      <stop offset="0" stop-color="#c33a00"/>
      <stop offset="0.55" stop-color="#f05a0a"/>
      <stop offset="1" stop-color="#d64000"/>
    </linearGradient>
  </defs>
  <rect width="128" height="128" rx="26" fill="#fff6df"/>
  <path fill="url(#log)" d="M21 107l34-17 18 8-26 16-26-7Zm85 0L73 90l-17 8 25 16 25-7Z"/>
  <path fill="#e34a05" d="M37 98l47-18 8 7-45 23-10-12Zm54 11L47 82l-8 7 40 26 12-6Z"/>
  <path fill="url(#flame)" d="M68 108c17-22 9-39-4-53-11-12-18-23-8-39-26 20-32 44-11 66 7 8 8 18 2 29 8-3 14-8 21-3Z"/>
  <path fill="#fff4c9" d="M61 109c10-16 6-27-2-36-6-8-8-15-2-25-17 16-18 30-5 45 4 4 5 10 2 17 3-1 5-2 7-1Z"/>
  <path fill="url(#glow)" d="M69 104c24-29 8-47-6-61-9-9-13-17-5-29 6 17 30 29 23 53-3 11-11 20-12 37Z" opacity=".92"/>
  <g fill="#ff5a07">
    <ellipse cx="88" cy="18" rx="3.4" ry="5.2" transform="rotate(35 88 18)"/>
    <ellipse cx="102" cy="41" rx="2.4" ry="4.1" transform="rotate(58 102 41)"/>
    <ellipse cx="91" cy="73" rx="2.5" ry="4.4" transform="rotate(50 91 73)"/>
    <ellipse cx="33" cy="73" rx="2.6" ry="4.5" transform="rotate(-42 33 73)"/>
    <ellipse cx="78" cy="33" rx="2.8" ry="5" transform="rotate(38 78 33)"/>
    <ellipse cx="104" cy="78" rx="1.5" ry="2.5" transform="rotate(45 104 78)"/>
    <ellipse cx="25" cy="91" rx="1.7" ry="2.8" transform="rotate(-58 25 91)"/>
  </g>
</svg>
