<svg xmlns="http://www.w3.org/2000/svg" viewBox="0 0 256 256" role="img" aria-label="Emberlist logo">
  <defs>
    <radialGradient id="softGlow" cx="50%" cy="72%" r="48%">
      <stop offset="0" stop-color="#fff1bd"/>
      <stop offset="0.38" stop-color="#ff9a25"/>
      <stop offset="1" stop-color="#e94d05"/>
    </radialGradient>
    <linearGradient id="mainFlame" x1="82" x2="160" y1="220" y2="28" gradientUnits="userSpaceOnUse">
      <stop offset="0" stop-color="#c83b00"/>
      <stop offset="0.42" stop-color="#ff7a16"/>
      <stop offset="0.72" stop-color="#ff9a35"/>
      <stop offset="1" stop-color="#ff5207"/>
    </linearGradient>
    <linearGradient id="logs" x1="40" x2="213" y1="210" y2="220" gradientUnits="userSpaceOnUse">
      <stop offset="0" stop-color="#c13700"/>
      <stop offset="0.52" stop-color="#f35a09"/>
      <stop offset="1" stop-color="#d64200"/>
    </linearGradient>
  </defs>
  <rect width="256" height="256" rx="44" fill="#fff6df"/>
  <path fill="url(#logs)" d="M38 214l70-36 34 18-54 32-50-14Zm180 0l-70-36-34 18 54 32 50-14Z"/>
  <path fill="#e54a04" d="M73 198l92-36 17 15-91 46-18-25Zm109 23L91 166l-16 15 84 53 23-13Z"/>
  <path fill="url(#mainFlame)" d="M135 219c36-46 18-79-8-108-23-25-37-48-17-81-53 41-64 90-22 136 15 16 18 36 6 58 16-6 28-17 41-5Z"/>
  <path fill="#fff4c9" d="M122 221c21-33 12-56-4-76-13-16-16-31-4-52-35 32-37 62-10 93 8 9 10 21 4 35 5-2 10-4 14 0Z"/>
  <path fill="url(#softGlow)" d="M138 211c50-60 18-96-11-126-18-19-26-35-10-58 13 35 62 59 47 108-7 23-23 42-26 76Z" opacity=".92"/>
  <g fill="#ff5a07">
    <ellipse cx="180" cy="32" rx="6" ry="10" transform="rotate(35 180 32)"/>
    <ellipse cx="213" cy="81" rx="4" ry="8" transform="rotate(58 213 81)"/>
    <ellipse cx="185" cy="144" rx="5" ry="9" transform="rotate(50 185 144)"/>
    <ellipse cx="65" cy="145" rx="5" ry="9" transform="rotate(-42 65 145)"/>
    <ellipse cx="161" cy="62" rx="6" ry="10" transform="rotate(38 161 62)"/>
    <ellipse cx="208" cy="158" rx="3" ry="5" transform="rotate(45 208 158)"/>
    <ellipse cx="48" cy="181" rx="3" ry="6" transform="rotate(-58 48 181)"/>
    <ellipse cx="155" cy="164" rx="3" ry="6" transform="rotate(31 155 164)"/>
    <ellipse cx="125" cy="78" rx="3" ry="6" transform="rotate(40 125 78)"/>
  </g>
</svg>
